<?xml version="1.0" standalone="no"?><!DOCTYPE svg PUBLIC "-//W3C//DTD SVG 1.1//EN" "http://www.w3.org/Graphics/SVG/1.1/DTD/svg11.dtd"><svg t="1596777617449" class="icon" viewBox="0 0 1024 1024" version="1.1" xmlns="http://www.w3.org/2000/svg" p-id="4967" xmlns:xlink="http://www.w3.org/1999/xlink" width="200" height="200"><defs><style type="text/css"></style></defs><path d="M511.488 64.468c-246.974 0-447.184 200.211-447.184 447.185 0 246.972 200.21 447.185 447.184 447.185s447.185-200.213 447.185-447.185c0-246.974-200.21-447.185-447.185-447.185z m223.795 472.027h-198.95v198.953c0 13.608-11.028 24.64-24.846 24.64-13.72 0-24.845-11.311-24.845-24.64V536.495h-198.95c-13.607 0-24.64-11.027-24.64-24.842 0-13.722 11.31-24.845 24.64-24.845h198.953V287.856c0-13.608 11.027-24.64 24.844-24.64 13.72 0 24.845 11.311 24.845 24.64v198.953h198.95c13.611 0 24.643 11.027 24.643 24.845-0.002 13.719-11.313 24.84-24.644 24.84z" p-id="4968"></path></svg>