<?xml version="1.0" standalone="no"?><!DOCTYPE svg PUBLIC "-//W3C//DTD SVG 1.1//EN" "http://www.w3.org/Graphics/SVG/1.1/DTD/svg11.dtd"><svg t="1596777612740" class="icon" viewBox="0 0 1024 1024" version="1.1" xmlns="http://www.w3.org/2000/svg" p-id="4833" xmlns:xlink="http://www.w3.org/1999/xlink" width="200" height="200"><defs><style type="text/css"></style></defs><path d="M561.03 385.616H266.81V435.2h294.22v-49.585z m-171.617 99.18H266.81v24.798h122.603v-24.798zM266.81 732.78v49.596h294.22v-49.596H266.81z m24.53-669.552v123.991h48.533l0.504-74.394h490.368v644.753l-49.037-0.427v50.05h98.062V63.227H291.34zM144.23 955.962h465.837V927.51l22.22 22.911 97.342-100.356 0.81-18.068h2.222v-619.98H144.23v743.946z m465.837-40.343v-83.624h76.94l-76.94 83.624zM193.255 261.613h490.366v520.762h-122.59v49.62h0.575l0.862 74.374H193.255V261.613z m196.158 396.773H266.81v24.796h122.603v-24.796z m171.617-99.194H266.81v49.619h294.22v-49.62z" fill="" p-id="4834"></path></svg>