<?xml version="1.0" standalone="no"?><!DOCTYPE svg PUBLIC "-//W3C//DTD SVG 1.1//EN" "http://www.w3.org/Graphics/SVG/1.1/DTD/svg11.dtd"><svg t="1597643020023" class="icon" viewBox="0 0 1024 1024" version="1.1" xmlns="http://www.w3.org/2000/svg" p-id="1323" xmlns:xlink="http://www.w3.org/1999/xlink" width="200" height="200"><defs><style type="text/css"></style></defs><path d="M753.82633335 121.71033333l101.446 101.446c12.445 12.445 12.445 32.81 0 45.255l-19.946 19.946c-12.445 12.445-32.81 12.445-45.255 0L688.62533335 186.91033333c-12.445-12.445-12.445-32.81 0-45.255l19.946-19.946c12.445-12.444 32.81-12.444 45.255 0.001zM771.94933335 286.53433333l-57.083-57.084c-1.038 2.108-2.313 4.131-4.037 5.906L330.47333335 627.23833333a22.996 22.996 0 0 1-16.546 7.001 22.976 22.976 0 0 1-16.051-6.506c-9.14-8.87-9.354-23.468-0.495-32.597l380.356-391.882c1.657-1.708 3.555-3 5.537-4.083-17.901-11.861-42.254-9.911-58.026 5.861L266.64533335 563.63533333c-18.004 18.006-18.004 47.197 0 65.202l81.5 81.5c18.005 18.004 47.196 18.004 65.201 0L771.94933335 351.73333333c18.004-18.003 18.004-47.195 0-65.199zM197.95533335 819.27433333l120.228-32.215c23.794-6.376 31.764-36.118 14.345-53.537l-88.013-88.013c-17.419-17.419-47.161-9.449-53.537 14.345L158.76333335 780.08233333c-6.376 23.795 15.398 45.568 39.192 39.192z" p-id="1324"></path></svg>