<?xml version="1.0" standalone="no"?><!DOCTYPE svg PUBLIC "-//W3C//DTD SVG 1.1//EN" "http://www.w3.org/Graphics/SVG/1.1/DTD/svg11.dtd"><svg t="1596812068085" class="icon" viewBox="0 0 1024 1024" version="1.1" xmlns="http://www.w3.org/2000/svg" p-id="19645" xmlns:xlink="http://www.w3.org/1999/xlink" width="48" height="48"><defs><style type="text/css"></style></defs><path d="M587 862.5H224.7c-46.5 0-84.3-37.8-84.3-84.3V415.9c0-46.5 37.8-84.3 84.3-84.3h157v45h-157c-21.7 0-39.3 17.6-39.3 39.3v362.3c0 21.7 17.6 39.3 39.3 39.3H587c21.7 0 39.3-17.6 39.3-39.3v-157h45v157c0 46.4-37.9 84.3-84.3 84.3z"  p-id="19646"></path><path d="M805.4 644H625.9V415.9c0-21.7-17.6-39.3-39.3-39.3H358.8V197.4c0-46.5 37.8-84.3 84.3-84.3h362.3c46.5 0 84.3 37.8 84.3 84.3v362.3c0 46.5-37.8 84.3-84.3 84.3z m-134.1-44.9h134.1c21.7 0 39.3-17.6 39.3-39.3V197.4c0-21.7-17.6-39.3-39.3-39.3H443.1c-21.7 0-39.3 17.6-39.3 39.3v134.5H587c46.5 0 84.3 37.8 84.3 84.3v182.9z" p-id="19647"></path></svg>